<?xml version="1.0" encoding="utf-8"?>
<!-- Generator: Adobe Illustrator 23.0.3, SVG Export Plug-In . SVG Version: 6.00 Build 0)  -->
<svg version="1.1" id="Layer_1" xmlns="http://www.w3.org/2000/svg" xmlns:xlink="http://www.w3.org/1999/xlink" x="0px" y="0px"
	 viewBox="0 0 1041.29 295.44" style="enable-background:new 0 0 1041.29 295.44;" xml:space="preserve">
	 <style>
	 	.croydonlogo {fill:#FFFFFF}
	 </style>
<path class="croydonlogo" d="M135.66,138.68c-15.89,9.27-32.01,16.12-53.21,16.12c-48.57,0-79.47-35.34-79.47-76.84
	c0-42.4,32.24-77.05,80.58-77.05c21.64,0,38.43,7.5,51.45,15.45l-10.81,29.59C111.6,38,99.24,32.04,85.55,32.04
	c-27.38,0-45.27,19.43-45.27,45.49c0,25.6,17.89,45.25,45.04,45.25c13.68,0,24.73-5.29,38.19-12.8L135.66,138.68z"/>
<path class="croydonlogo" d="M207.64,31.6h-16.12v34.88h17.01c8.62,0,17.65-7.06,17.65-17.22C226.17,39.1,218.9,31.6,207.64,31.6
	 M240.09,152.82c-12.58-22.52-22.51-57.19-39.96-57.19h-8.62v57.19h-35.1V2.67h58.74c28.26,0,47.24,21.42,47.24,46.38
	c0,15.67-8.38,29.35-21.85,36.88c6.63,5.72,10.14,10.38,15.68,20.95c1.98,3.99,19.87,39.76,23.18,45.95H240.09z"/>
<path class="croydonlogo" d="M356.67,32.47c-24.73,0-40.19,19-40.19,45.04c0,26.06,15.46,45.49,40.19,45.49c24.07,0,39.3-19.42,39.3-45.49
	C395.97,51.47,380.73,32.47,356.67,32.47 M356.67,154.79c-48.13,0-77.05-37.96-77.05-77.28c0-38.18,28.25-76.61,77.05-76.61
	c48.13,0,76.61,38.64,76.61,76.61C433.27,116.83,403.7,154.79,356.67,154.79"/>
<polygon class="croydonlogo" points="426.12,2.67 467.4,2.67 497.65,54.77 528.12,2.67 568.97,2.67 515.31,88.34 515.31,152.82 
	479.99,152.82 479.99,88.34 "/>
<path class="croydonlogo" d="M617.85,123.67h17.23c29.8,0,44.37-21.41,44.37-45.48c0-26.5-15.23-46.59-44.6-46.59h-17V123.67z M637.73,2.68
	c46.8,0,78.6,32,78.6,75.51c0,43.93-31.79,74.63-80.36,74.63h-53.21V2.68H637.73z"/>
<path class="croydonlogo" d="M808.84,32.47c-24.73,0-40.19,19-40.19,45.04c0,26.06,15.47,45.49,40.19,45.49c24.06,0,39.3-19.42,39.3-45.49
	C848.13,51.47,832.9,32.47,808.84,32.47 M808.84,154.79c-48.13,0-77.06-37.96-77.06-77.28c0-38.18,28.26-76.61,77.06-76.61
	c48.13,0,76.61,38.64,76.61,76.61C885.44,116.83,855.86,154.79,808.84,154.79"/>
<path class="croydonlogo" d="M1037.79,2.67v150.15h-29.14l-66.25-93.18h-1.1c0.22,7.94,0.88,16.12,0.88,23.62v69.56h-35.1V2.67h31.58
	l63.36,88.76h1.33c-0.23-8.17-0.66-16.78-0.66-25.61V2.67H1037.79z"/>
<path class="croydonlogo" d="M83.08,215.5l-19.74,54.61h-8.38l-10.91-29.6c-1.14-3.45-1.61-5.17-1.61-5.17H42c0,0-0.34,1.72-1.6,5.17
	l-10.78,29.6h-8.27L1.5,215.5h13.32l9.74,29.94c1.04,3.09,1.28,4.48,1.28,4.48h0.56c0,0,0.23-1.39,1.27-4.6l10.45-29.82h8.38
	l10.44,29.82c0.92,3.21,1.26,4.6,1.26,4.6h0.57c0,0,0.35-1.39,1.15-4.48l9.86-29.94H83.08z"/>
<path class="croydonlogo" d="M166.16,215.5l-19.74,54.61h-8.37l-10.9-29.6c-1.14-3.45-1.61-5.17-1.61-5.17h-0.45c0,0-0.35,1.72-1.61,5.17
	l-10.79,29.6h-8.27L84.58,215.5h13.31l9.75,29.94c1.04,3.09,1.27,4.48,1.27,4.48h0.57c0,0,0.23-1.39,1.26-4.6l10.44-29.82h8.39
	L140,245.32c0.92,3.21,1.26,4.6,1.26,4.6h0.58c0,0,0.34-1.39,1.14-4.48l9.87-29.94H166.16z"/>
<path class="croydonlogo" d="M249.25,215.5l-19.74,54.61h-8.37l-10.92-29.6c-1.14-3.45-1.61-5.17-1.61-5.17h-0.46c0,0-0.34,1.72-1.59,5.17
	l-10.79,29.6h-8.27l-19.86-54.61h13.31l9.75,29.94c1.03,3.09,1.27,4.48,1.27,4.48h0.57c0,0,0.23-1.39,1.26-4.6l10.44-29.82h8.38
	l10.44,29.82c0.91,3.21,1.26,4.6,1.26,4.6h0.57c0,0,0.35-1.39,1.15-4.48l9.86-29.94H249.25z"/>
<path class="croydonlogo" d="M268.07,263.11c0,4.49-3.56,8.04-8.03,8.04c-4.47,0-8.02-3.55-8.02-8.04c0-4.47,3.55-8.02,8.02-8.02
	C264.52,255.09,268.07,258.64,268.07,263.11"/>
<path class="croydonlogo" d="M325.57,267.47c-4.93,2.07-10.79,3.68-17.44,3.68c-16.31,0-28.23-11.93-28.23-28.22
	c0-16.64,11.81-28.46,27.88-28.46c6.53,0,12.05,1.6,17.44,3.89l-3.79,10.55c-4.49-2.29-8.38-3.55-12.16-3.55
	c-9.77,0-15.5,7.45-15.5,17.32c0,9.99,5.85,17.44,15.73,17.44c3.67,0,7.22-0.91,12.16-2.87L325.57,267.47z"/>
<path class="croydonlogo" d="M361.25,226.4c-6.09,0-9.98,4.47-11.93,9.86v33.85h-13.41v-54.62h13.41v9.18h0.12
	c4.13-6.66,9.18-10.44,14.57-10.22c2.99,0.12,6.19,1.28,10.57,4.03l-4.6,11.59C366.3,227.66,363.32,226.4,361.25,226.4"/>
<path class="croydonlogo" d="M390.28,242.58c0,11.13,5.63,18.26,13.78,18.26c8.72,0,13.89-7.59,13.89-18.26c0-9.97-5.17-17.79-13.89-17.79
	C395.68,224.79,390.28,232.25,390.28,242.58 M432.05,242.68c0,16.87-12.85,28.46-27.99,28.46c-16.4,0-27.77-12.84-27.77-28.57
	c0-15.72,12.04-28.11,27.77-28.11C419.32,214.46,432.05,226.28,432.05,242.68"/>
<path class="croydonlogo" d="M495.86,215.5l-26.28,62.99c-4.7,11.23-13.76,15.94-22.83,15.94c-0.91,0-2.07-0.11-3.1-0.11v-12.62
	c1.03,0.22,2.07,0.22,2.99,0.22c4.7,0,8.49-2.4,10.79-7.8l1.6-4.24l-22.72-54.39h14.11c0,0,12.16,29.82,15.16,38.56h0.91
	c3.09-8.74,15.26-38.56,15.26-38.56H495.86z"/>
<path class="croydonlogo" d="M537.05,256.11v-26.96c-2.62-2.29-6.08-4.23-9.51-4.23c-7.92,0-13.43,8.02-13.43,17.78
	c0,9.06,3.79,18.13,13.54,18.13C531.1,260.82,534.54,258.88,537.05,256.11 M550.37,192.09v78.03h-13.32v-4.03
	c-3.55,2.77-7.79,5.06-12.49,5.06c-14.47,0-24.1-12.16-24.1-28.57c0-15.72,10.1-28.11,24.77-28.11c4.26,0,8.39,1.71,11.82,4.01
	v-26.39H550.37z"/>
<path class="croydonlogo" d="M575.96,242.58c0,11.13,5.63,18.26,13.78,18.26c8.71,0,13.87-7.59,13.87-18.26c0-9.97-5.15-17.79-13.87-17.79
	C581.36,224.79,575.96,232.25,575.96,242.58 M617.73,242.68c0,16.87-12.85,28.46-27.99,28.46c-16.41,0-27.78-12.84-27.78-28.57
	c0-15.72,12.04-28.11,27.78-28.11C605,214.46,617.73,226.28,617.73,242.68"/>
<path class="croydonlogo" d="M662.49,236.49c0-6.54-2.42-11.36-8.38-11.36c-4.25,0-7.69,2.3-11.36,7.24v37.74h-13.43V215.5h13.43l0.1,6.09
	c3.68-4.6,8.84-7.12,14.23-7.12c10.32,0,18.82,7.58,18.82,20.89v34.76h-13.43V236.49z"/>
<path class="croydonlogo" d="M707.82,263.11c0,4.49-3.55,8.04-8.03,8.04c-4.49,0-8.03-3.55-8.03-8.04c0-4.47,3.55-8.02,8.03-8.02
	C704.26,255.09,707.82,258.64,707.82,263.11"/>
<path class="croydonlogo" d="M756.13,256.11v-26.96c-2.53-2.3-6.09-4.24-9.42-4.24c-7.91,0-13.43,8.03-13.43,17.78
	c0,9.06,3.69,18.13,13.43,18.13C750.28,260.82,753.6,258.87,756.13,256.11 M728.47,279.3c4.6,2.86,9.74,4.36,14.12,4.36
	c9.63,0,13.54-5.06,13.54-12.16v-5.52c-3.44,2.88-7.69,5.17-12.51,5.17c-14.34,0-23.98-12.16-23.98-28.57
	c0-15.73,9.98-28.11,24.8-28.11c4.35,0,8.48,1.83,11.81,4.24v-3.21h13.19v54.74c0,14.91-9.63,24.2-26.15,24.2
	c-8.03,0-14.69-2.64-19.97-5.85L728.47,279.3z"/>
<path class="croydonlogo" d="M794.8,242.58c0,11.13,5.62,18.26,13.76,18.26c8.73,0,13.89-7.59,13.89-18.26c0-9.97-5.16-17.79-13.89-17.79
	C800.19,224.79,794.8,232.25,794.8,242.58 M836.57,242.68c0,16.87-12.86,28.46-28.01,28.46c-16.4,0-27.76-12.84-27.76-28.57
	c0-15.72,12.04-28.11,27.76-28.11C823.83,214.46,836.57,226.28,836.57,242.68"/>
<path class="croydonlogo" d="M894.17,215.5l-23.06,54.61h-8.84l-22.94-54.61h13.99l11.59,30.97c1.26,3.55,1.6,5.17,1.6,5.17h0.46
	c0,0,0.46-1.62,1.72-5.17l11.37-30.97H894.17z"/>
<path class="croydonlogo" d="M912.88,263.11c0,4.49-3.55,8.04-8.03,8.04c-4.49,0-8.03-3.55-8.03-8.04c0-4.47,3.55-8.02,8.03-8.02
	C909.33,255.09,912.88,258.64,912.88,263.11"/>
<path class="croydonlogo" d="M940.89,249.11c0,6.43,2.64,11.36,8.5,11.36c4.12,0,7.56-2.3,11.35-7.11v-37.88h13.43v54.62h-13.43v-5.95
	c-3.79,4.57-8.95,6.99-14.46,6.99c-10.33,0-18.82-7.58-18.82-21v-34.66h13.43V249.11z"/>
<polygon class="croydonlogo" points="1038.99,215.5 1015.12,238.1 1039.57,270.11 1023.04,270.11 1002.28,241.9 1001.93,242 1001.93,270.11 
	988.5,270.11 988.5,192.09 1001.93,192.09 1001.93,233.96 1002.05,233.96 1020.4,215.5 "/>
</svg>
