<svg width="32" height="42" version="1.1" fill="#1a1a25" xmlns="http://www.w3.org/2000/svg" xmlns:xlink="http://www.w3.org/1999/xlink"
	 viewBox="0 0 42 55.4">
<path d="M21,11.3c1.4,1.6,2.9,3.1,4.4,4.6c5.5,5.5,10.5,10.5,10.5,17.9v0.1V34v0.7c-0.2,8.1-6.9,14.7-15,14.7c-0.1,0-0.2,0-0.3,0
	c-4-0.1-7.8-1.7-10.5-4.6C7.4,41.8,5.9,38,6,33.9v-0.1c0-7.4,5.2-12.4,10.5-17.9C18.1,14.4,19.6,12.8,21,11.3 M21,0
	c-1.1,4.2-4.8,7.9-8.7,11.6C6.6,17.4,0,24,0,33.8C-0.3,45.4,9,55,20.5,55.2H21c11.3,0,20.7-9.1,21-20.5c0-0.3,0-0.6,0-0.9
	c0-9.9-6.6-16.4-12.3-22.2C25.8,7.9,22.1,4.2,21,0z"/>
</svg>
