<svg width="256" height="97" viewBox="0 0 256 97" fill="none" xmlns="http://www.w3.org/2000/svg">
  <path d="M0 49.0565H28.7605V42.1766H7.47414V6.58075H0V49.0565Z" fill="white" />
  <path d="M44.4427 49.6548C54.4879 49.6548 59.9889 43.3731 59.9889 32.0064C59.9889 20.5798 54.4879 14.358 44.4427 14.358C34.3975 14.358 28.8965 20.5798 28.8965 32.0064C28.8965 43.3731 34.3975 49.6548 44.4427 49.6548ZM44.4427 42.7151C38.9417 42.7151 36.3706 39.2452 36.3706 32.0064C36.3706 24.7676 38.9417 21.2977 44.4427 21.2977C49.9437 21.2977 52.5148 24.7676 52.5148 32.0064C52.5148 39.2452 49.9437 42.7151 44.4427 42.7151Z" fill="white" />
  <path d="M77.7176 49.6548C84.2949 49.6548 88.3608 47.0823 91.4103 41.0998L85.0722 37.7496C83.4578 41.2793 81.3052 42.7151 77.7176 42.7151C72.2167 42.7151 69.6456 39.305 69.6456 32.0064C69.6456 24.7077 72.2167 21.2977 77.7176 21.2977C81.3052 21.2977 83.4578 22.7335 85.0722 26.2632L91.4103 22.913C88.3608 16.9305 84.2949 14.358 77.7176 14.358C67.6126 14.358 62.1714 20.52 62.1714 32.0064C62.1714 43.4928 67.6126 49.6548 77.7176 49.6548Z" fill="white" />
  <path d="M124.873 42.8945C123.797 42.8945 123.08 42.4159 123.08 41.04V14.9563H116.263V18.7851C114.111 15.7938 110.822 14.358 106.696 14.358C98.0861 14.358 92.5852 20.5798 92.5852 32.0064C92.5852 43.3731 98.0861 49.6548 106.696 49.6548C110.762 49.6548 114.051 48.2788 116.203 45.3474C117.16 48.6377 119.552 49.6548 123.02 49.6548C124.335 49.6548 125.591 49.4753 126.667 49.0565V42.6552C126.01 42.8347 125.471 42.8945 124.873 42.8945ZM107.892 42.7151C102.63 42.7151 100.059 39.2452 100.059 32.0064C100.059 24.7676 102.63 21.2977 107.892 21.2977C113.154 21.2977 115.665 24.5881 115.665 30.0322V33.9806C115.665 39.4247 113.154 42.7151 107.892 42.7151Z" fill="white" />
  <path d="M144.159 42.9544C140.512 42.9544 138.897 40.5614 138.897 36.7924V35.7155C145.534 29.9125 154.563 21.7763 154.563 12.6231C154.563 4.66635 150.378 0 143.023 0C136.506 0 131.842 3.76898 131.842 10.2899V33.0832L125.982 38.0487L129.749 43.1937L132.32 41.1596C133.516 46.4242 137.223 49.6548 143.8 49.6548C149.361 49.6548 152.171 47.0225 153.726 44.5696L148.883 40.3221C147.986 41.5784 146.79 42.9544 144.159 42.9544ZM143.023 6.7004C145.893 6.7004 147.328 8.67463 147.328 12.5034C147.328 18.0672 143.322 22.7335 138.897 26.9213V11.2471C138.897 8.31568 140.691 6.7004 143.023 6.7004Z" fill="white" />
  <path d="M189.203 25.8444H173.657V32.7243H182.028V36.0745C182.028 38.8863 178.62 42.6552 172.88 42.6552C166.482 42.6552 162.297 37.6898 162.297 27.8785C162.297 17.9475 166.303 12.982 173.837 12.982C178.381 12.982 180.892 14.8366 182.686 19.3235L189.682 15.8536C186.692 9.15323 181.849 5.9825 173.896 5.9825C161.579 5.9825 154.763 13.5803 154.763 27.8186C154.763 42.057 161.459 49.6548 172.641 49.6548C177.364 49.6548 180.414 47.9198 182.387 45.5867L182.806 49.0565H189.203V25.8444Z" fill="white" />
  <path d="M208.073 49.6548C218.118 49.6548 223.619 43.3731 223.619 32.0064C223.619 20.5798 218.118 14.358 208.073 14.358C198.028 14.358 192.527 20.5798 192.527 32.0064C192.527 43.3731 198.028 49.6548 208.073 49.6548ZM208.073 42.7151C202.572 42.7151 200.001 39.2452 200.001 32.0064C200.001 24.7676 202.572 21.2977 208.073 21.2977C213.574 21.2977 216.145 24.7676 216.145 32.0064C216.145 39.2452 213.574 42.7151 208.073 42.7151Z" fill="white" />
  <path d="M235.086 49.0565H244.653L252.546 30.4509C255.595 23.3318 255.595 18.6654 254.639 14.9563H246.866C248.002 18.4859 248.42 22.8532 245.431 29.9125L240.109 42.5954H239.75L231.14 14.9563H223.367L235.086 49.0565Z" fill="white" />
  <path d="M103.929 88.4154H114.047C122.852 88.4154 129.287 82.7203 129.287 73.9682C129.287 65.258 122.852 59.5628 114.047 59.5628H103.929V88.4154ZM108.205 84.4372V63.5411H114.089C120.524 63.5411 124.8 67.8962 124.8 73.9682C124.8 80.3752 120.27 84.4372 114.089 84.4372H108.205Z" fill="white" />
  <path d="M132.953 88.4154H136.932V78.0301C136.932 73.34 139.98 70.7018 143.621 70.7018H144.298V66.8493H143.663C140.531 66.8911 138.033 68.6499 136.847 70.7856H136.551L136.128 67.4774H132.953V88.4154Z" fill="white" />
  <path d="M156.298 89.0017C162.182 89.0017 166.204 85.6516 166.204 79.7052V67.5612H162.098V79.4121C162.098 83.2228 160.023 85.3166 156.34 85.3166C152.657 85.3166 150.583 83.2646 150.583 79.3702V67.5193H146.476V79.7052C146.476 85.6097 150.371 89.0017 156.298 89.0017Z" fill="white" />
  <path d="M170.932 97H174.954V84.9816H175.25C176.266 86.9079 179.102 89.0854 182.87 89.0854C189.051 89.0854 193.793 84.3534 193.793 77.9464C193.793 71.5394 189.305 66.8493 182.955 66.8493C178.637 66.8493 175.716 69.0268 174.657 71.1206H174.361L173.938 67.4774H170.932V97ZM182.362 85.4422C177.917 85.4422 174.869 81.7571 174.869 77.9464C174.869 74.0101 178.002 70.4506 182.405 70.4506C186.511 70.4506 189.771 73.5075 189.771 77.9464C189.771 82.3852 186.469 85.4422 182.362 85.4422Z" fill="white" />
  <path d="M206.971 89.0854C210.951 89.0854 213.914 86.9497 215.142 84.6047H215.438C215.65 87.0335 215.904 89.0435 219.248 89.0435C220.053 89.0435 220.772 88.876 221.492 88.5829V85.0653H221.069C220.815 85.1491 220.476 85.2328 220.264 85.2328C218.74 85.2328 218.867 83.9765 218.825 82.0921V67.5193H215.819L215.396 71.1625H215.099C213.914 69.0687 211.289 66.8493 206.971 66.8493C200.494 66.8493 195.964 71.7069 195.964 78.072C195.964 84.3115 200.494 89.0854 206.971 89.0854ZM207.394 85.4422C203.288 85.4422 199.986 82.3852 199.986 77.9464C199.986 73.5075 203.203 70.4506 207.352 70.4506C211.755 70.4506 214.888 74.0101 214.888 77.9464C214.888 81.7571 211.84 85.4422 207.394 85.4422Z" fill="white" />
  <path d="M224.621 88.4154H228.643V58.8928H224.621V88.4154Z" fill="white" />
</svg>