<svg width="201" height="52" xmlns="http://www.w3.org/2000/svg"><g fill="#FFF" fill-rule="nonzero"><path d="M35.48 33.96c-1.48 0-2.63-.59-3.45-1.78l.97-1.11c.43.61.84 1.03 1.23 1.27s.86.35 1.4.35c.5 0 .92-.11 1.26-.34.34-.23.52-.52.52-.88 0-.4-.17-.73-.51-.99-.34-.26-.88-.46-1.61-.59-1.87-.37-2.8-1.29-2.8-2.78 0-.5.14-.94.42-1.32.28-.38.66-.69 1.13-.91.47-.22 1.01-.33 1.6-.33 1.44 0 2.47.54 3.1 1.61l-.99.98c-.26-.43-.57-.75-.93-.98-.36-.23-.77-.34-1.21-.34-.51 0-.92.12-1.23.35-.31.23-.47.53-.47.91s.14.68.42.91c.28.23.77.42 1.46.56.96.2 1.7.52 2.24.97.53.44.8.98.8 1.61 0 .87-.3 1.56-.9 2.08-.6.49-1.42.75-2.45.75ZM40.48 36.71v-9.74h1.36v.98c.21-.3.52-.55.93-.77.41-.22.84-.33 1.29-.33.62 0 1.17.15 1.65.46.48.31.86.72 1.14 1.25.28.53.42 1.14.42 1.83 0 .68-.14 1.29-.41 1.82-.27.54-.65.96-1.13 1.27-.48.31-1.02.46-1.62.46-.44 0-.87-.1-1.28-.3-.41-.2-.74-.44-.98-.72v3.78h-1.37v.01Zm3.4-4c.4 0 .76-.1 1.07-.3.31-.2.56-.48.75-.82.18-.35.27-.75.27-1.19 0-.44-.09-.84-.27-1.18-.18-.34-.42-.62-.74-.82-.31-.2-.68-.3-1.08-.3s-.77.1-1.08.29c-.31.2-.56.47-.75.82-.19.35-.27.75-.27 1.19 0 .44.09.84.27 1.19.18.35.43.62.75.82.31.2.67.3 1.08.3ZM51.93 33.96c-.71 0-1.33-.15-1.88-.45-.54-.3-.97-.71-1.28-1.24-.31-.52-.46-1.12-.46-1.8 0-.72.15-1.36.45-1.9.3-.54.71-.97 1.24-1.28.53-.31 1.13-.47 1.81-.48.59.01 1.13.16 1.6.44.47.28.85.68 1.12 1.18.27.5.4 1.07.39 1.71l-.01.58h-5.25c.08.62.33 1.11.76 1.47.43.36.98.54 1.64.54.34 0 .66-.06.95-.17.29-.11.61-.32.95-.61l.68.95c-.32.31-.73.57-1.23.76-.5.2-.99.3-1.48.3Zm-.12-5.91c-1.18 0-1.88.53-2.1 1.59h3.84v-.09c-.03-.29-.12-.54-.29-.77-.17-.23-.37-.41-.63-.54-.25-.12-.52-.19-.82-.19ZM59.3 33.96c-.64 0-1.21-.16-1.71-.47-.5-.31-.9-.74-1.19-1.28-.29-.54-.44-1.15-.44-1.82 0-.67.15-1.28.44-1.82.29-.54.69-.97 1.19-1.28.5-.31 1.07-.47 1.71-.47.61 0 1.17.12 1.67.37s.88.59 1.14 1.01l-.75.92c-.21-.3-.5-.56-.87-.77-.37-.21-.73-.31-1.07-.31-.42 0-.79.1-1.12.31-.33.21-.59.49-.78.84-.19.36-.29.76-.29 1.2 0 .44.1.84.3 1.2.2.36.47.63.8.84.33.21.7.31 1.1.31.71 0 1.35-.35 1.92-1.05l.75.92c-.28.39-.68.71-1.2.97-.5.25-1.04.38-1.6.38ZM64.28 25.45c-.29 0-.51-.07-.67-.22-.16-.15-.23-.36-.23-.63 0-.25.08-.46.24-.61.16-.16.38-.24.66-.24.29 0 .51.07.67.22.16.15.24.36.24.63 0 .25-.08.46-.24.61-.17.16-.39.24-.67.24Zm-.65 8.38v-6.86h1.35v6.86h-1.35ZM69.65 33.96c-.57 0-1.08-.16-1.55-.47-.47-.31-.84-.74-1.12-1.28-.28-.54-.42-1.15-.42-1.83 0-.69.14-1.3.42-1.84.28-.54.67-.96 1.15-1.26a2.95 2.95 0 0 1 1.63-.46c.51 0 .97.11 1.37.33.4.22.7.51.91.86v-1.05h1.36v6.86h-1.36v-1.06c-.24.33-.57.61-1 .84-.42.24-.89.36-1.39.36Zm.36-1.24c.41 0 .77-.1 1.08-.3.31-.2.56-.48.74-.83.18-.35.27-.76.27-1.21 0-.44-.09-.84-.27-1.19-.18-.35-.42-.62-.74-.82-.31-.2-.68-.3-1.08-.3s-.76.1-1.07.3c-.31.2-.55.48-.73.82-.18.35-.27.75-.27 1.19 0 .45.09.86.27 1.21.18.35.42.63.73.83.31.2.67.3 1.07.3ZM75.31 33.83v-9.67h1.35v9.67zM82.57 33.83v-9.15h5.76v1.36h-4.35v2.42h3.63v1.36h-3.63v2.65h4.35v1.36h-5.76zM93.05 33.96c-.63 0-1.19-.15-1.68-.46-.49-.31-.88-.73-1.17-1.27-.29-.54-.43-1.15-.43-1.84 0-.69.14-1.3.42-1.84.28-.54.67-.96 1.16-1.27.49-.31 1.04-.46 1.66-.46.45 0 .88.1 1.29.29.41.19.73.43.97.71v-3.66h1.35v9.67h-1.35v-.94c-.21.3-.52.55-.93.76-.4.21-.83.31-1.29.31Zm.19-1.16c.41 0 .77-.1 1.08-.31.31-.21.56-.5.74-.86.18-.36.27-.77.27-1.24s-.09-.87-.27-1.24c-.18-.36-.42-.65-.74-.86-.31-.21-.68-.31-1.08-.31s-.77.1-1.08.31c-.31.21-.56.49-.74.86-.18.36-.27.77-.27 1.24s.09.87.27 1.24c.18.36.42.65.74.86.3.2.67.31 1.08.31ZM101.09 33.96c-.73 0-1.32-.25-1.75-.75-.44-.5-.65-1.17-.65-2.01v-4.24h1.35v3.87c0 .6.14 1.08.42 1.42.28.34.68.52 1.18.52.5 0 .91-.16 1.24-.47.33-.31.49-.72.49-1.22v-4.13h1.35v6.86h-1.35v-1.1c-.23.37-.54.66-.95.89-.41.23-.85.36-1.33.36ZM109.51 33.96c-.64 0-1.21-.16-1.71-.47-.5-.31-.9-.74-1.19-1.28-.29-.54-.44-1.15-.44-1.82 0-.67.15-1.28.44-1.82.29-.54.69-.97 1.19-1.28.5-.31 1.07-.47 1.71-.47.61 0 1.17.12 1.67.37s.88.59 1.14 1.01l-.75.92c-.21-.3-.5-.56-.87-.77-.37-.21-.73-.31-1.07-.31-.42 0-.79.1-1.12.31-.33.21-.59.49-.78.84-.19.36-.29.76-.29 1.2 0 .44.1.84.3 1.2.2.36.47.63.8.84.33.21.7.31 1.1.31.71 0 1.35-.35 1.92-1.05l.75.92c-.28.39-.68.71-1.2.97-.5.25-1.04.38-1.6.38ZM116.23 33.96c-.57 0-1.08-.16-1.55-.47-.47-.31-.84-.74-1.12-1.28-.28-.54-.42-1.15-.42-1.83 0-.69.14-1.3.42-1.84.28-.54.67-.96 1.15-1.26a2.95 2.95 0 0 1 1.63-.46c.51 0 .97.11 1.37.33.4.22.7.51.91.86v-1.05h1.36v6.86h-1.36v-1.06c-.24.33-.57.61-1 .84-.43.24-.89.36-1.39.36Zm.35-1.24c.41 0 .77-.1 1.08-.3.31-.2.56-.48.74-.83.18-.35.27-.76.27-1.21 0-.44-.09-.84-.27-1.19-.18-.35-.42-.62-.74-.82-.31-.2-.68-.3-1.08-.3s-.76.1-1.07.3c-.31.2-.55.48-.73.82-.18.35-.27.75-.27 1.19 0 .45.09.86.27 1.21.18.35.42.63.73.83.32.2.67.3 1.07.3ZM122.71 33.83v-5.56h-1.42v-1.31h1.42v-1.75h1.35v1.75h1.59v1.31h-1.59v5.56zM127.78 25.45c-.29 0-.51-.07-.67-.22-.16-.15-.24-.36-.24-.63 0-.25.08-.46.24-.61.16-.15.38-.24.66-.24.29 0 .51.07.67.22.16.15.24.36.24.63 0 .25-.08.46-.24.61-.16.16-.38.24-.66.24Zm-.65 8.38v-6.86h1.35v6.86h-1.35ZM133.6 33.96c-.67 0-1.27-.15-1.8-.46-.53-.31-.94-.73-1.25-1.27-.31-.54-.46-1.15-.46-1.84 0-.69.15-1.3.46-1.84.3-.54.72-.96 1.25-1.27.53-.31 1.13-.46 1.8-.46.66 0 1.26.15 1.78.46.53.31.94.73 1.25 1.27.31.54.46 1.15.46 1.84 0 .69-.15 1.3-.46 1.84-.3.54-.72.96-1.25 1.27-.53.31-1.12.46-1.78.46Zm0-1.23c.41 0 .78-.1 1.1-.31.32-.2.58-.48.76-.84.18-.35.27-.75.26-1.2.01-.45-.08-.86-.26-1.21s-.44-.63-.76-.83c-.32-.2-.69-.3-1.1-.3-.41 0-.78.1-1.1.31-.33.21-.58.48-.76.84-.18.35-.27.75-.26 1.2-.01.44.08.84.26 1.2.18.35.44.63.76.84.32.2.69.3 1.1.3ZM138.56 33.83v-6.86h1.35v1.07c.23-.34.55-.63.96-.86.41-.23.84-.35 1.29-.35 1.57 0 2.35.94 2.35 2.82v4.18h-1.35v-4.09c0-1.18-.48-1.74-1.45-1.69-.34 0-.65.07-.92.22-.27.14-.49.34-.65.58-.16.24-.23.52-.23.82v4.16h-1.35ZM148.97 33.96c-.57 0-1.08-.16-1.55-.47-.47-.31-.84-.74-1.12-1.28-.28-.54-.42-1.15-.42-1.83 0-.69.14-1.3.42-1.84.28-.54.67-.96 1.15-1.26a2.95 2.95 0 0 1 1.63-.46c.51 0 .97.11 1.37.33.4.22.7.51.91.86v-1.05h1.36v6.86h-1.36v-1.06c-.24.33-.57.61-1 .84-.42.24-.89.36-1.39.36Zm.36-1.24c.41 0 .77-.1 1.08-.3.31-.2.56-.48.74-.83.18-.35.27-.76.27-1.21 0-.44-.09-.84-.27-1.19-.18-.35-.42-.62-.74-.82-.31-.2-.68-.3-1.08-.3s-.76.1-1.07.3c-.31.2-.55.48-.73.82-.18.35-.27.75-.27 1.19 0 .45.09.86.27 1.21.18.35.42.63.73.83.31.2.67.3 1.07.3ZM154.63 33.83v-9.67h1.35v9.67zM161.89 33.83v-9.15h1.27l5.32 7.12c-.07-.53-.12-1.15-.15-1.84-.03-.69-.05-1.46-.05-2.27v-3.01h1.41v9.15h-1.29l-5.32-6.98c.06.76.11 1.34.14 1.76.03.42.06.72.07.93.01.2.01.37.01.49v3.8h-1.41ZM175.12 33.96c-.71 0-1.33-.15-1.88-.45-.54-.3-.97-.71-1.28-1.24-.31-.52-.46-1.12-.46-1.8 0-.72.15-1.36.45-1.9.3-.54.71-.97 1.24-1.28.53-.31 1.13-.47 1.81-.48.59.01 1.13.16 1.6.44.47.29.85.68 1.12 1.18.27.5.4 1.07.39 1.71l-.01.58h-5.25c.08.62.33 1.11.76 1.47.43.36.98.54 1.64.54.34 0 .66-.06.95-.17.29-.11.61-.32.95-.61l.68.95c-.32.31-.73.57-1.23.76-.5.2-.99.3-1.48.3Zm-.12-5.91c-1.18 0-1.88.53-2.1 1.59h3.84v-.09c-.03-.29-.12-.54-.29-.77-.17-.23-.38-.41-.63-.54-.25-.12-.52-.19-.82-.19ZM182.78 33.96c-.71 0-1.33-.15-1.88-.45-.54-.3-.97-.71-1.28-1.24-.31-.52-.46-1.12-.46-1.8 0-.72.15-1.36.45-1.9.3-.54.71-.97 1.24-1.28.53-.31 1.13-.47 1.81-.48.59.01 1.13.16 1.6.44.47.29.85.68 1.12 1.18.27.5.4 1.07.39 1.71l-.01.58h-5.25c.08.62.33 1.11.76 1.47.43.36.98.54 1.64.54.34 0 .66-.06.95-.17.29-.11.61-.32.95-.61l.68.95c-.32.31-.73.57-1.23.76-.5.2-.99.3-1.48.3Zm-.12-5.91c-1.18 0-1.88.53-2.1 1.59h3.84v-.09c-.03-.29-.12-.54-.29-.77-.17-.23-.38-.41-.63-.54-.25-.12-.52-.19-.82-.19ZM190.1 33.96c-.63 0-1.19-.15-1.68-.46-.49-.31-.88-.73-1.17-1.27-.29-.54-.43-1.15-.43-1.84 0-.69.14-1.3.42-1.84.28-.54.67-.96 1.16-1.27.49-.31 1.04-.46 1.66-.46.45 0 .88.1 1.29.29.41.19.73.43.97.71v-3.66h1.35v9.67h-1.35v-.94c-.21.3-.52.55-.93.76-.41.21-.84.31-1.29.31Zm.18-1.16c.41 0 .77-.1 1.08-.31.31-.21.56-.5.74-.86.18-.36.27-.77.27-1.24s-.09-.87-.27-1.24c-.18-.36-.42-.65-.74-.86-.31-.21-.68-.31-1.08-.31-.41 0-.77.1-1.08.31-.31.21-.56.49-.74.86-.18.36-.27.77-.27 1.24s.09.87.27 1.24c.18.36.42.65.74.86.31.2.67.31 1.08.31ZM197.81 33.96c-.58 0-1.09-.1-1.56-.3-.47-.2-.84-.5-1.15-.89l.92-.78c.26.31.55.52.86.66.31.14.66.2 1.05.2.32 0 .59-.08.79-.24.2-.16.31-.37.31-.64a.67.67 0 0 0-.25-.55c-.17-.13-.54-.27-1.14-.43-.5-.13-.92-.28-1.24-.44-.32-.17-.57-.35-.75-.56-.25-.31-.38-.71-.38-1.19 0-.38.11-.72.33-1.02.22-.3.51-.53.88-.7.37-.17.79-.25 1.25-.25.49 0 .96.1 1.42.29.46.2.83.46 1.1.8l-.77.85c-.25-.25-.53-.46-.84-.61-.31-.15-.59-.23-.84-.23-.38 0-.67.07-.87.21-.21.14-.31.34-.31.61.01.24.1.43.29.58.18.15.57.3 1.16.44.44.11.79.24 1.08.37.29.13.51.29.67.46.17.17.3.36.37.58.07.22.11.46.11.73 0 .39-.11.74-.33 1.05-.22.31-.52.55-.9.73-.38.18-.8.27-1.26.27ZM34.96 49.65c-.57 0-1.08-.16-1.55-.47-.47-.31-.84-.74-1.12-1.28-.28-.54-.42-1.15-.42-1.83 0-.69.14-1.3.42-1.84.28-.54.67-.96 1.15-1.26a2.95 2.95 0 0 1 1.63-.46c.51 0 .97.11 1.37.33.4.22.7.51.91.86v-1.05h1.36v6.86h-1.36v-1.06c-.24.33-.57.61-1 .84-.43.24-.89.36-1.39.36Zm.35-1.24c.41 0 .77-.1 1.08-.3.31-.2.56-.48.74-.83.18-.35.27-.76.27-1.21 0-.44-.09-.84-.27-1.19-.18-.35-.42-.62-.74-.82-.31-.2-.68-.3-1.08-.3s-.76.1-1.07.3c-.31.2-.55.47-.73.82-.18.35-.27.75-.27 1.19 0 .45.09.86.27 1.21.18.35.42.63.73.83.32.2.67.3 1.07.3ZM40.6 49.52v-6.86h1.35v1.07c.23-.34.55-.63.96-.86.41-.24.84-.35 1.29-.35 1.57 0 2.35.94 2.35 2.82v4.18H45.2v-4.09c0-1.18-.48-1.74-1.45-1.69-.34 0-.65.07-.92.21-.27.14-.49.34-.65.58-.16.24-.24.52-.24.82v4.16H40.6v.01ZM51.24 49.65c-.63 0-1.19-.15-1.68-.46-.49-.31-.88-.73-1.17-1.27-.29-.54-.43-1.15-.43-1.84 0-.69.14-1.3.42-1.84.28-.54.67-.96 1.16-1.27.49-.31 1.04-.46 1.66-.46.45 0 .88.1 1.29.29.41.19.73.43.97.71v-3.66h1.35v9.67h-1.35v-.94c-.21.3-.52.55-.93.76-.41.2-.84.31-1.29.31Zm.18-1.17c.41 0 .77-.11 1.08-.31.31-.21.56-.49.74-.86.18-.36.27-.77.27-1.24s-.09-.87-.27-1.24c-.18-.36-.42-.65-.74-.86-.31-.21-.68-.31-1.08-.31s-.77.1-1.08.31c-.31.21-.56.49-.74.86-.18.36-.27.77-.27 1.24s.09.87.27 1.24c.18.36.42.65.74.86.31.21.67.31 1.08.31ZM60.66 49.52v-9.15h3.58c.87 0 1.63.19 2.27.58.64.39 1.14.92 1.49 1.61.35.69.53 1.49.53 2.39 0 .92-.17 1.71-.52 2.4-.35.68-.84 1.22-1.48 1.6-.64.38-1.4.58-2.28.58h-3.59v-.01Zm3.52-7.79h-2.1v6.43h2.1c.92 0 1.64-.29 2.15-.86.51-.57.76-1.36.76-2.36 0-.99-.26-1.78-.77-2.35-.51-.58-1.23-.86-2.14-.86ZM71 41.14c-.29 0-.51-.07-.67-.22-.16-.15-.23-.36-.23-.63 0-.25.08-.46.24-.61.16-.16.38-.24.66-.24.29 0 .51.07.67.22.16.15.24.36.24.63 0 .25-.08.46-.24.61-.17.16-.39.24-.67.24Zm-.65 8.38v-6.86h1.35v6.86h-1.35ZM76.02 49.65c-.58 0-1.09-.1-1.56-.3-.47-.2-.85-.5-1.15-.89l.92-.78c.26.3.55.52.86.66.31.13.66.2 1.05.2.32 0 .59-.08.79-.24.2-.16.31-.37.31-.64a.67.67 0 0 0-.25-.55c-.17-.13-.54-.27-1.14-.43-.51-.13-.92-.28-1.24-.44-.32-.17-.57-.35-.75-.56-.25-.31-.38-.71-.38-1.19 0-.38.11-.72.33-1.02.22-.3.51-.53.88-.7.37-.17.79-.25 1.25-.25.49 0 .96.1 1.42.29.46.2.83.46 1.1.8l-.77.85c-.25-.25-.53-.46-.84-.61-.31-.15-.59-.23-.84-.23-.38 0-.66.07-.87.21-.2.14-.31.34-.31.61.01.24.1.43.29.58.18.15.57.3 1.16.44.44.11.79.24 1.08.37.28.13.51.29.67.46.17.17.3.36.37.58.07.22.1.46.1.73 0 .39-.11.74-.33 1.05-.22.31-.52.55-.9.73-.37.18-.79.27-1.25.27ZM82.63 49.65c-.57 0-1.08-.16-1.55-.47-.47-.31-.84-.74-1.12-1.28-.28-.54-.42-1.15-.42-1.83 0-.69.14-1.3.42-1.84.28-.54.67-.96 1.15-1.26a2.95 2.95 0 0 1 1.63-.46c.51 0 .97.11 1.37.33.4.22.7.51.91.86v-1.05h1.36v6.86h-1.36v-1.06c-.24.33-.57.61-1 .84-.42.24-.89.36-1.39.36Zm.36-1.24c.41 0 .77-.1 1.08-.3.31-.2.56-.48.74-.83.18-.35.27-.76.27-1.21 0-.44-.09-.84-.27-1.19-.18-.35-.42-.62-.74-.82-.31-.2-.68-.3-1.08-.3s-.76.1-1.07.3c-.31.2-.55.47-.73.82-.18.35-.27.75-.27 1.19 0 .45.09.86.27 1.21.18.35.42.63.73.83.31.2.67.3 1.07.3ZM91.88 49.65c-.44 0-.87-.1-1.28-.31-.41-.2-.74-.45-.98-.73v.86h-1.35v-9.63h1.35v3.79c.21-.3.52-.57.93-.79.41-.22.84-.33 1.29-.33.62 0 1.17.15 1.65.46.48.3.86.73 1.14 1.26.28.54.42 1.15.42 1.84 0 .69-.14 1.3-.41 1.84-.27.54-.65.96-1.13 1.27-.49.31-1.03.47-1.63.47Zm-.23-1.23c.4 0 .76-.1 1.07-.31.31-.21.56-.48.75-.84.18-.35.27-.76.27-1.21 0-.44-.09-.84-.27-1.2-.18-.35-.42-.63-.74-.83-.31-.2-.68-.3-1.08-.3s-.77.1-1.08.3c-.31.2-.56.48-.75.83-.18.35-.27.75-.27 1.2 0 .45.09.86.27 1.21.18.35.43.63.75.84.31.21.67.31 1.08.31ZM97.41 41.14c-.29 0-.51-.07-.67-.22-.16-.15-.23-.36-.23-.63 0-.25.08-.46.24-.61.16-.16.38-.24.66-.24.29 0 .51.07.67.22.16.15.24.36.24.63 0 .25-.08.46-.24.61-.18.16-.4.24-.67.24Zm-.66 8.38v-6.86h1.35v6.86h-1.35ZM100.16 49.52v-9.67h1.35v9.67zM104.32 41.14c-.29 0-.51-.07-.67-.22-.16-.15-.23-.36-.23-.63 0-.25.08-.46.24-.61.16-.16.38-.24.66-.24.29 0 .51.07.67.22.16.15.24.36.24.63 0 .25-.08.46-.24.61-.17.16-.39.24-.67.24Zm-.65 8.38v-6.86h1.35v6.86h-1.35ZM107.9 49.52v-5.56h-1.42v-1.31h1.42V40.9h1.35v1.75h1.59v1.31h-1.59v5.56zM112.97 41.14c-.29 0-.51-.07-.67-.22-.16-.15-.24-.36-.24-.63 0-.25.08-.46.24-.61.16-.16.38-.24.66-.24.29 0 .51.07.67.22.16.15.24.36.24.63 0 .25-.08.46-.24.61-.16.16-.38.24-.66.24Zm-.65 8.38v-6.86h1.35v6.86h-1.35ZM118.91 49.65c-.71 0-1.33-.15-1.88-.45-.54-.3-.97-.71-1.28-1.24-.31-.52-.46-1.12-.46-1.8 0-.72.15-1.36.45-1.9.3-.54.71-.97 1.24-1.28.53-.31 1.13-.47 1.81-.48.59.01 1.13.16 1.6.44.47.29.85.68 1.12 1.18.27.5.4 1.07.39 1.71l-.01.58h-5.25c.08.62.33 1.11.76 1.47.43.36.98.54 1.64.54.34 0 .66-.06.95-.17.29-.11.61-.32.95-.62l.68.96c-.32.31-.73.57-1.23.76-.5.2-.99.3-1.48.3Zm-.12-5.91c-1.18 0-1.88.53-2.1 1.59h3.84v-.09c-.03-.29-.12-.54-.29-.77-.17-.23-.38-.41-.63-.54-.25-.13-.52-.19-.82-.19ZM125.65 49.65c-.58 0-1.09-.1-1.56-.3-.47-.2-.84-.5-1.15-.89l.92-.78c.26.3.55.52.86.66.31.13.66.2 1.05.2.32 0 .59-.08.79-.24.2-.16.31-.37.31-.64a.67.67 0 0 0-.25-.55c-.17-.13-.54-.27-1.14-.43-.5-.13-.92-.28-1.24-.44-.32-.17-.57-.35-.75-.56-.25-.31-.38-.71-.38-1.19 0-.38.11-.72.33-1.02.22-.3.51-.53.88-.7.37-.17.79-.25 1.25-.25.49 0 .96.1 1.42.29.46.2.83.46 1.1.8l-.77.85c-.25-.25-.53-.46-.84-.61-.31-.15-.59-.23-.84-.23-.38 0-.67.07-.87.21-.21.14-.31.34-.31.61.01.24.1.43.29.58.18.15.57.3 1.16.44.44.11.79.24 1.08.37.29.13.51.29.67.46.17.17.3.36.37.58.07.22.11.46.11.73 0 .39-.11.74-.33 1.05-.22.31-.52.55-.9.73-.38.18-.79.27-1.26.27ZM136.14 51.95c-1.06-.66-1.87-1.49-2.43-2.48s-.84-2.1-.84-3.32c0-1.21.28-2.32.84-3.31.56-1 1.37-1.83 2.44-2.49l.72.81c-.89.62-1.57 1.36-2.03 2.22-.47.86-.7 1.78-.7 2.78 0 .99.23 1.92.7 2.78.47.86 1.14 1.6 2.03 2.22l-.73.79ZM141.24 49.65c-1.48 0-2.63-.59-3.45-1.78l.97-1.11c.43.61.84 1.03 1.23 1.27s.86.35 1.4.35c.5 0 .92-.11 1.26-.34.34-.23.52-.52.52-.88 0-.4-.17-.73-.51-.99-.34-.26-.88-.46-1.61-.59-1.86-.37-2.8-1.29-2.8-2.78 0-.5.14-.94.42-1.32.28-.38.66-.69 1.13-.91.47-.22 1.01-.33 1.6-.33 1.44 0 2.47.54 3.1 1.61l-.99.98c-.26-.43-.57-.75-.93-.98-.36-.23-.76-.34-1.21-.34-.51 0-.92.12-1.23.35-.31.23-.47.53-.47.91 0 .37.14.68.42.91.28.23.77.42 1.46.56.96.2 1.7.52 2.24.97.54.45.8.98.8 1.61 0 .87-.3 1.56-.89 2.08-.62.49-1.44.75-2.46.75ZM146.57 49.52v-9.15h5.76v1.36h-4.35v2.42h3.63v1.36h-3.63v2.65h4.35v1.36h-5.76zM154.59 49.52v-9.15h1.27l5.32 7.12c-.07-.53-.12-1.15-.15-1.84-.03-.69-.05-1.46-.05-2.27v-3.01h1.41v9.15h-1.29l-5.32-6.98c.06.76.11 1.34.14 1.76.04.41.06.72.07.93.01.21.01.37.01.49v3.8h-1.41ZM164.96 49.52v-9.15h3.58c.87 0 1.63.19 2.27.58.64.39 1.14.92 1.49 1.61.35.69.53 1.49.53 2.39 0 .92-.17 1.71-.52 2.4-.35.68-.84 1.22-1.48 1.6-.64.38-1.4.58-2.28.58h-3.59v-.01Zm3.52-7.79h-2.11v6.43h2.11c.92 0 1.64-.29 2.15-.86.51-.57.76-1.36.76-2.36 0-.99-.26-1.78-.77-2.35-.51-.58-1.23-.86-2.14-.86ZM174.02 51.95l-.72-.81c.89-.62 1.57-1.36 2.03-2.22.47-.86.7-1.78.7-2.78 0-.99-.23-1.92-.7-2.78-.47-.86-1.14-1.6-2.03-2.22l.73-.81c1.06.66 1.87 1.49 2.43 2.48s.84 2.1.84 3.32c0 1.21-.28 2.32-.84 3.31-.56 1.02-1.38 1.85-2.44 2.51Z"/><g><path d="M7.65 9.18c-.59.17-.99.35-1.48.47-.21.05-.49-.17-.57-.39-.15-.44-.18-.96-.36-1.35-.27-.26-1.22.07-1.23.43.12.43.43.94.61 1.44.05.15.04.3.01.45a.99.99 0 0 1-.54.7c-.52.26-1.06.42-1.63.57-.77.2-1.5.4-2.25.64-.05.02-.1.06-.11.12-.11.39-.06.71.14 1.06.13.24.36.61.6.53.93-.41 1.79-.87 2.72-1.27.46-.19.9-.47 1.43-.39.28.04.57.2.68.47.18.47.39 1.41.4 1.43.16.35 1.3-.05 1.25-.36 0-.01-.45-.94-.57-1.25-.1-.26.13-.62.4-.69 1.95-.56 3.94-.65 5.94-.49.4.03.78.05 1.19.13l1.22.23c.55.1.93.28 1.49.4.13.04.15-.08.16-.13l.02-.06c.32-2.14 4.08-.72 2.89 1.17 0 0-.02.05-.03.06-.03.06.01.1.01.1.37.26.74.48 1.18.75.03.02.08.06.12.03.19-.13.26-.35.42-.5.18-.17.37-.3.58-.42.93-.49 1.86-.85 2.82-1.23.01 0 .01-.06 0-.07C17.6 6.74 10.64 8.33 7.68 9.18h-.03ZM7.7 2.07c-.58.17-.99.36-1.48.47-.21.05-.49-.17-.56-.38-.15-.44-.19-.96-.36-1.35-.27-.27-1.22.06-1.23.43.12.42.43.93.61 1.44.05.15.04.29.01.44-.07.31-.25.57-.54.7-.52.26-1.06.42-1.63.57-.77.2-1.49.41-2.24.64-.05.02-.1.07-.11.12-.11.4-.05.71.14 1.06.13.24.36.61.6.53.93-.41 1.78-.87 2.72-1.27.45-.2.9-.47 1.42-.39.28.04.57.2.68.47.18.47.39 1.41.4 1.43.16.36 1.3-.05 1.26-.36 0-.01-.45-.94-.57-1.25-.1-.26.14-.62.4-.7 1.95-.56 3.94-.65 5.94-.49.4.03.78.05 1.18.13l1.22.23c.55.1.93.27 1.49.4.12.04.15-.08.16-.13l.02-.06c.32-2.14 4.08-.72 2.89 1.16 0 0-.02.05-.03.06-.03.07.01.11.01.11.37.26.74.47 1.17.75.03.02.08.06.12.03.19-.13.26-.34.42-.49.18-.17.37-.31.58-.42.93-.49 1.86-.85 2.82-1.23.01-.01.01-.07 0-.08C17.65-.37 10.69 1.21 7.73 2.06l-.03.01ZM7.62 16.28c-.59.18-.99.36-1.47.47-.21.05-.49-.17-.57-.39-.15-.44-.19-.96-.36-1.35-.27-.27-1.23.07-1.23.43.12.42.43.93.61 1.44.05.14.04.29.01.44-.07.32-.25.57-.54.71-.52.26-1.06.42-1.63.57-.77.2-1.49.4-2.24.64-.06.02-.1.07-.11.12-.11.4-.05.7.14 1.06.13.25.36.61.6.53.93-.41 1.78-.87 2.72-1.27.45-.2.9-.47 1.43-.39.28.04.57.2.68.48.18.47.39 1.41.4 1.42.16.36 1.3-.05 1.26-.36 0-.01-.45-.94-.57-1.25-.1-.26.13-.62.4-.7 1.95-.56 3.94-.65 5.94-.49.4.03.78.05 1.19.13l1.22.23c.55.1.93.28 1.49.39.12.04.15-.08.16-.13l.02-.06c.32-2.14 4.08-.72 2.89 1.17 0 0-.02.05-.03.06-.03.06.01.1.01.1.37.26.74.48 1.18.75.03.02.08.06.12.03.19-.13.26-.34.42-.5.18-.17.37-.31.58-.42.93-.49 1.86-.85 2.82-1.23.01 0 .01-.06 0-.07-7.56-5.02-14.52-3.43-17.49-2.58l-.05.02Z"/></g><path d="M32.35 6.11h7.61v1.33H33.8v3.02h5.7v1.33h-5.7v3.4h6.24v1.33h-7.69z"/><g><path d="M44.54 12.08c1.86.43 2.39 1.07 2.39 2.14 0 1.39-1.08 2.53-3.08 2.53-2.4 0-3.15-1.29-3.15-2.7H42c.03.72.29 1.52 2.02 1.52.98 0 1.58-.46 1.58-1.14 0-.49-.3-.8-1.2-1.01l-1.48-.35c-1.1-.25-2-.69-2-2.02 0-1.32.97-2.3 2.89-2.3 2.1 0 2.91 1.29 2.91 2.43h-1.3c-.07-.58-.36-1.24-1.69-1.24-.95 0-1.47.49-1.47 1.03 0 .57.52.74 1.27.9l1.01.21ZM51.22 12.08c1.87.43 2.39 1.07 2.39 2.14 0 1.39-1.08 2.53-3.08 2.53-2.4 0-3.15-1.29-3.15-2.7h1.3c.03.72.29 1.52 2.03 1.52.98 0 1.57-.46 1.57-1.14 0-.49-.3-.8-1.2-1.01l-1.48-.35c-1.1-.25-2-.69-2-2.02 0-1.32.97-2.3 2.89-2.3 2.1 0 2.91 1.29 2.91 2.43h-1.3c-.07-.58-.36-1.24-1.69-1.24-.96 0-1.48.49-1.48 1.03 0 .57.52.74 1.27.9l1.02.21ZM59.79 12.01c-.01-.78-.52-2.08-2-2.08-1.2 0-1.92.59-2.11 2.08h4.11Zm1.26 2.01c-.1 1.13-1.09 2.73-3.25 2.73-2.27 0-3.5-1.52-3.5-4.01 0-2.49 1.23-4 3.5-4 2.07 0 3.36 1.36 3.36 3.61 0 .26-.01.52-.03.75h-5.44c.04 1.76.98 2.46 2.11 2.46 1.31 0 1.76-.95 1.95-1.55h1.3v.01Z"/><path d="m63.48 12.64-2.52-3.67h1.65l1.69 2.63L66 8.97h1.64l-2.51 3.67 2.7 3.88h-1.65l-1.88-2.89-1.88 2.89h-1.64zM79.75 12.62c-.2 1.65-1.19 4.14-4.44 4.14-2.88 0-4.76-2.07-4.76-5.44 0-3.37 1.88-5.44 4.76-5.44 3.51 0 4.35 2.44 4.44 3.53H78.3c-.22-.84-.82-2.17-2.85-2.17-2.11 0-3.37 1.56-3.37 4.08s1.26 4.08 3.37 4.08c2.04 0 2.65-1.71 2.85-2.77h1.45v-.01ZM80.29 12.74c0-2.49 1.23-4.01 3.5-4.01s3.5 1.52 3.5 4.01c0 2.49-1.23 4.01-3.5 4.01s-3.5-1.52-3.5-4.01m3.5 2.82c1.24 0 2.11-.81 2.11-2.82s-.87-2.82-2.11-2.82c-1.24 0-2.11.81-2.11 2.82 0 2.02.87 2.82 2.11 2.82M93.12 15.58c-.41.35-1.09 1.17-2.63 1.17-1.39 0-2.26-.78-2.26-2.75V8.97h1.33v5.05c0 .81.36 1.49 1.4 1.49 1.08 0 2.1-.66 2.1-1.98V8.98h1.33v7.55h-1.27v-.95ZM95.73 8.97H97v.94c.41-.35 1.08-1.17 2.63-1.17 1.3 0 2.26.78 2.26 2.75v5.03h-1.33v-5.04c0-.78-.42-1.49-1.4-1.49-1.08 0-2.1.71-2.1 1.98v4.56h-1.33V8.97ZM105.94 16.62c-.22 0-.53.03-.88.03-1.35 0-1.72-.45-1.72-1.93v-4.66h-1v-1.1h1V6.93h1.33v2.03h1.24v1.1h-1.24v4.48c0 .74.23.91.72.91.16 0 .42-.03.55-.03v1.2ZM110.38 17.34c-.74 2.05-1.37 2.24-2.2 2.24-.32 0-.64-.06-.94-.12v-1.21c.23.07.52.11.79.11.72 0 .97-.84 1.27-1.71l-2.79-7.69h1.45l2.02 5.97h.03l1.98-5.97h1.42l-3.03 8.38ZM125.5 12.62c-.2 1.65-1.19 4.14-4.44 4.14-2.88 0-4.76-2.07-4.76-5.44 0-3.37 1.88-5.44 4.76-5.44 3.52 0 4.36 2.44 4.44 3.53h-1.45c-.22-.84-.82-2.17-2.85-2.17-2.11 0-3.37 1.56-3.37 4.08s1.26 4.08 3.37 4.08c2.04 0 2.65-1.71 2.85-2.77h1.45v-.01ZM126.06 12.74c0-2.49 1.23-4.01 3.5-4.01s3.5 1.52 3.5 4.01c0 2.49-1.23 4.01-3.5 4.01s-3.5-1.52-3.5-4.01m3.5 2.82c1.24 0 2.11-.81 2.11-2.82s-.87-2.82-2.11-2.82c-1.24 0-2.11.81-2.11 2.82 0 2.02.87 2.82 2.11 2.82M138.76 15.58c-.41.35-1.08 1.17-2.63 1.17-1.39 0-2.25-.78-2.25-2.75V8.97h1.33v5.05c0 .81.36 1.49 1.4 1.49 1.08 0 2.1-.66 2.1-1.98V8.98h1.33v7.55h-1.27v-.95h-.01ZM141.17 8.97h1.27v.94c.4-.35 1.08-1.17 2.63-1.17 1.3 0 2.25.78 2.25 2.75v5.03H146v-5.04c0-.78-.42-1.49-1.4-1.49-1.08 0-2.1.71-2.1 1.98v4.56h-1.33V8.97ZM154.59 13.8c-.07 1.42-1.04 2.95-3.07 2.95-2.27 0-3.5-1.52-3.5-4 0-2.49 1.23-4.01 3.5-4.01 2.28 0 3.02 1.62 3.02 2.83h-1.3c-.06-.69-.42-1.65-1.72-1.65-1.24 0-2.11.81-2.11 2.82s.87 2.82 2.11 2.82c1.27 0 1.66-1.2 1.76-1.76h1.31ZM155.26 8.97h1.33v7.55h-1.33V8.97Zm0-2.86h1.33v1.47h-1.33V6.11ZM157.77 6.11h1.33v10.41h-1.33z"/></g></g></svg>