<?xml version="1.0" encoding="UTF-8"?>
<svg viewBox="0 0 211 29" xmlns="http://www.w3.org/2000/svg">
<g fill="#fff">
<path d="m10.38 12.03c-0.77 0.23-1.3 0.47-1.95 0.62-0.28 0.069999-0.65-0.23-0.75-0.51-0.2-0.58-0.24-1.27-0.47-1.79-0.36-0.35-1.62 0.089997-1.62 0.57 0.16 0.56 0.57 1.24 0.8 1.9 0.07 0.2 0.060002 0.39 0.010001 0.59-0.090001 0.41-0.34 0.74001-0.71 0.92001-0.69 0.34-1.4 0.56-2.15 0.75999-1.02 0.26-1.98 0.53-2.97 0.85-0.07 0.020004-0.13 0.080002-0.14 0.16-0.15 0.52-0.069999 0.93 0.18 1.4 0.17 0.32 0.48 0.81 0.8 0.7 1.23-0.54 2.36-1.15 3.59-1.68 0.6-0.26 1.19-0.62 1.88-0.51 0.37 0.050003 0.75 0.26 0.89 0.62 0.24 0.63 0.52 1.87 0.53 1.88 0.22 0.47 1.72-0.07 1.66-0.46999 0-0.020004-0.59-1.24-0.75-1.65-0.14-0.35 0.18-0.82 0.52-0.92 2.57-0.74 5.2-0.86 7.85-0.65 0.52 0.040001 1.03 0.069999 1.57 0.17 0.55 0.11 1.06 0.2 1.61 0.31 0.73 0.14 1.23 0.37 1.96 0.52 0.17 0.049995 0.2-0.099999 0.22-0.18l0.030002-0.080001c0.42-2.83 5.39-0.96 3.81 1.54 0 0-0.029999 0.059998-0.039997 0.089997-0.040001 0.080002 0.019996 0.13 0.019996 0.13 0.49 0.34 0.98 0.63 1.55 0.99 0.039997 0.020004 0.11 0.080001 0.16 0.04 0.25-0.17 0.34-0.46 0.55-0.66 0.23-0.21999 0.48-0.39999 0.77-0.56 1.23-0.65 2.46-1.12 3.73-1.62 0.009999 0 0.020001-0.079995 0-0.099999-9.99-6.63-19.18-4.53-23.09-3.41l-0.050001 0.029999z"/>
<path d="m10.45 2.64c-0.77 0.23-1.31 0.47-1.95 0.62-0.28 0.07-0.65-0.23-0.74-0.51-0.2-0.59-0.25-1.27-0.47-1.79-0.36-0.36-1.62 0.080002-1.62 0.57 0.16 0.56 0.57 1.23 0.8 1.9 0.070002 0.19 0.060002 0.39 0.010001 0.59-0.090001 0.41-0.34 0.75-0.71 0.92-0.69 0.34-1.4 0.56-2.15 0.76-1.01 0.27-1.97 0.54-2.96 0.85001-0.07 0.029999-0.13 0.089996-0.15 0.16-0.15 0.53-0.069999 0.93 0.18 1.4 0.17 0.32 0.47 0.81 0.79 0.7 1.23-0.54 2.36-1.14 3.6-1.68 0.6-0.25999 1.2-0.62 1.88-0.52 0.37 0.050003 0.76 0.26 0.9 0.62 0.24 0.62 0.51 1.87 0.53 1.88 0.22 0.47 1.71-0.07 1.66-0.48 0-0.009994-0.6-1.24-0.76-1.65-0.13-0.35001 0.18-0.82 0.53-0.92 2.57-0.74 5.2-0.86 7.85-0.64999 0.52 0.039993 1.03 0.069999 1.56 0.17 0.56 0.099998 1.06 0.2 1.62 0.3 0.73 0.14 1.23 0.36 1.97 0.52 0.16 0.049995 0.2-0.11 0.21-0.17l0.02-0.060005c0.42-2.83 5.39-0.96 3.81 1.54 0 0-0.029999 0.07-0.040001 0.080002-0.040001 0.089996 0.02 0.14 0.02 0.14 0.49 0.34 0.98 0.63 1.55 0.99 0.040001 0.029999 0.11 0.080002 0.16 0.040001 0.26-0.17 0.34-0.45 0.55-0.65 0.23-0.22 0.48-0.41 0.77-0.56 1.23-0.65 2.46-1.13 3.73-1.62 0.020001-0.009994 0.020001-0.089996 0-0.099998-9.99-6.62-19.18-4.53-23.09-3.4l-0.059999 0.010002z"/>
<path d="m10.34 21.4c-0.78 0.23-1.3 0.46999-1.95 0.62-0.28 0.060005-0.65-0.22-0.75-0.51-0.2-0.59-0.25-1.27-0.47-1.79-0.36-0.35001-1.62 0.089997-1.62 0.57 0.16 0.56 0.57 1.23 0.8 1.9 0.07 0.19 0.06 0.39001 0.010001 0.58-0.090001 0.42-0.33 0.75-0.71 0.93-0.69 0.34-1.4 0.56-2.15 0.76-1.02 0.26-1.97 0.53-2.96 0.85-0.070002 0.020004-0.13 0.090004-0.15 0.15-0.15 0.52-0.069999 0.93 0.19 1.4 0.17 0.32 0.47 0.81 0.8 0.7 1.22-0.54 2.36-1.15 3.59-1.68 0.6-0.26 1.19-0.61 1.89-0.52 0.37 0.049995 0.75 0.25999 0.89 0.63 0.24 0.62 0.52 1.86 0.53 1.88 0.21 0.47 1.71-0.07 1.66-0.48 0-0.010002-0.6-1.24-0.75-1.65-0.14-0.35 0.18-0.82 0.52-0.92 2.57-0.74 5.2-0.86 7.85-0.65 0.53 0.040001 1.03 0.07 1.57 0.17 0.55 0.11 1.06 0.2 1.61 0.31001 0.73 0.13 1.23 0.37 1.97 0.52 0.16 0.050003 0.2-0.099998 0.21-0.17l0.030003-0.080002c0.42-2.82 5.39-0.96 3.81 1.54 0 0-0.029998 0.07-0.039997 0.089996-0.040001 0.080002 0.020001 0.13 0.020001 0.13 0.49 0.35 0.98 0.63 1.55 1 0.040001 0.019997 0.11 0.07 0.16 0.040001 0.26-0.17001 0.34-0.45 0.55-0.65 0.23-0.22 0.48-0.41 0.77-0.56 1.22-0.64999 2.46-1.13 3.73-1.63 0.009998 0 0.02-0.080002 0-0.099998-9.99-6.62-19.18-4.53-23.09-3.4l-0.07 0.020005z"/>
</g>
<g fill="#fff">
<path d="m43 7.97h10.05v1.76h-8.14v3.99h7.53v1.76h-7.53v4.49h8.26v1.75h-10.17z"/>
<path d="m59.1 15.86c2.46 0.57 3.15 1.41 3.15 2.83 0 1.83-1.43 3.34-4.07 3.34-3.17 0-4.16-1.7-4.16-3.57h1.72c0.040001 0.96 0.38 2.01 2.67 2.01 1.3 0 2.08-0.61 2.08-1.51 0-0.65-0.4-1.05-1.58-1.34l-1.95-0.46c-1.45-0.32-2.64-0.92-2.64-2.67 0-1.74 1.28-3.04 3.82-3.04 2.77 0 3.84 1.7 3.84 3.21h-1.72c-0.090004-0.75999-0.48-1.64-2.23-1.64-1.26 0-1.95 0.65-1.95 1.35 0 0.75 0.69 0.97 1.68 1.19l1.34 0.3z"/>
<path d="m67.92 15.86c2.46 0.57 3.15 1.41 3.15 2.83 0 1.83-1.43 3.34-4.07 3.34-3.17 0-4.16-1.7-4.16-3.57h1.72c0.04 0.96 0.38 2.01 2.67 2.01 1.3 0 2.08-0.61 2.08-1.51 0-0.65-0.39999-1.05-1.58-1.34l-1.95-0.46c-1.45-0.32-2.64-0.92-2.64-2.67 0-1.74 1.28-3.04 3.82-3.04 2.77 0 3.84 1.7 3.84 3.21h-1.72c-0.090004-0.75999-0.48-1.64-2.23-1.64-1.26 0-1.95 0.65-1.95 1.35 0 0.75 0.68999 0.97 1.68 1.19l1.34 0.3z"/>
<path d="m79.25 15.76c-0.019997-1.03-0.69-2.75-2.64-2.75-1.59 0-2.54 0.78001-2.79 2.75h5.43zm1.66 2.66c-0.13 1.49-1.43 3.61-4.3 3.61-3 0-4.62-2-4.62-5.29 0-3.28 1.62-5.29 4.62-5.29 2.73 0 4.43 1.8 4.43 4.77 0 0.35-0.020004 0.69-0.040001 0.99h-7.18c0.059997 2.33 1.3 3.25 2.79 3.25 1.74 0 2.33-1.26 2.58-2.04h1.72z"/>
<path d="m84.12 16.6-3.33-4.85h2.18l2.24 3.48 2.23-3.48h2.18l-3.32 4.85 3.57 5.12h-2.18l-2.48-3.82-2.49 3.82h-2.17z"/>
<path d="m105.6 16.57c-0.27 2.18-1.57 5.46-5.86 5.46-3.8 0-6.28-2.73-6.28-7.18 0-4.45 2.48-7.18 6.28-7.18 4.64 0 5.75 3.22 5.86 4.66h-1.91c-0.29-1.11-1.09-2.87-3.76-2.87-2.79 0-4.45 2.06-4.45 5.39 0 3.32 1.66 5.38 4.45 5.38 2.69 0 3.49-2.25 3.76-3.66h1.91z"/>
<path d="m106.32 16.74c0-3.28 1.62-5.29 4.62-5.29s4.62 2.01 4.62 5.29c0 3.29-1.63 5.29-4.62 5.29-2.99 0-4.62-2.01-4.62-5.29m4.63 3.72c1.64 0 2.79-1.07 2.79-3.72 0-2.65-1.15-3.72-2.79-3.72s-2.79 1.07-2.79 3.72c0 2.65 1.14 3.72 2.79 3.72"/>
<path d="m123.26 20.48c-0.53999 0.46-1.44 1.55-3.48 1.55-1.83 0-2.98-1.03-2.98-3.63v-6.65h1.76v6.67c0 1.07 0.48 1.97 1.85 1.97 1.43 0 2.77-0.88 2.77-2.62v-6.01h1.76v9.97h-1.68v-1.25z"/>
<path d="m126.72 11.75h1.68v1.24c0.54001-0.46 1.43-1.55 3.48-1.55 1.72 0 2.98 1.03 2.98 3.63v6.65h-1.76v-6.66c0-1.03-0.55-1.97-1.85-1.97-1.43 0-2.77 0.94-2.77 2.61v6.02h-1.76v-9.97z"/>
<path d="m140.2 21.86c-0.28999 0-0.70999 0.040001-1.16 0.040001-1.78 0-2.27-0.59-2.27-2.54v-6.15h-1.32v-1.45h1.32v-2.67h1.76v2.67h1.64v1.45h-1.64v5.92c0 0.97 0.31 1.21 0.96001 1.21 0.20999 0 0.54999-0.040001 0.73-0.040001v1.56z"/>
<path d="m146.06 22.81c-0.97 2.71-1.81 2.96-2.9 2.96-0.42 0-0.84-0.080002-1.24-0.15v-1.6c0.31 0.090004 0.69 0.15 1.05 0.15 0.95999 0 1.28-1.11 1.68-2.25l-3.69-10.16h1.91l2.67 7.89h0.040009l2.62-7.89h1.87l-4.01 11.05z"/>
<path d="m166.03 16.57c-0.27 2.18-1.57 5.46-5.87 5.46-3.81 0-6.29-2.73-6.29-7.18 0-4.45 2.48-7.18 6.29-7.18 4.64 0 5.75 3.22 5.87 4.66h-1.91c-0.28999-1.11-1.09-2.87-3.77-2.87-2.79 0-4.46 2.06-4.46 5.39 0 3.32 1.67 5.38 4.46 5.38 2.7 0 3.5-2.25 3.77-3.66h1.91z"/>
<path d="m166.77 16.74c0-3.28 1.62-5.29 4.62-5.29s4.62 2.01 4.62 5.29c0 3.29-1.62 5.29-4.62 5.29-2.99 0-4.62-2.01-4.62-5.29m4.63 3.72c1.64 0 2.79-1.07 2.79-3.72 0-2.65-1.14-3.72-2.79-3.72-1.64 0-2.79 1.07-2.79 3.72 0 2.65 1.14 3.72 2.79 3.72"/>
<path d="m183.54 20.48c-0.53999 0.46-1.43 1.55-3.48 1.55-1.83 0-2.98-1.03-2.98-3.63v-6.65h1.76v6.67c0 1.07 0.48001 1.97 1.85 1.97 1.43 0 2.77-0.88 2.77-2.62v-6.01h1.76v9.97h-1.68v-1.25z"/>
<path d="m186.73 11.75h1.68v1.24c0.53-0.46 1.43-1.55 3.48-1.55 1.72 0 2.98 1.03 2.98 3.63v6.65h-1.76v-6.66c0-1.03-0.55-1.97-1.85-1.97-1.43 0-2.77 0.94-2.77 2.61v6.02h-1.76v-9.97z"/>
<path d="m204.45 18.13c-0.099991 1.87-1.38 3.9-4.05 3.9-3 0-4.62-2-4.62-5.29s1.62-5.29 4.62-5.29c3.02 0 3.99 2.14 3.99 3.74h-1.72c-0.080002-0.92-0.55-2.17-2.27-2.17-1.64 0-2.79 1.07-2.79 3.72 0 2.66 1.15 3.72 2.79 3.72 1.68 0 2.2-1.58 2.33-2.33h1.72z"/>
<path d="m205.34 11.75h1.76v9.97h-1.76v-9.97zm0-3.78h1.76v1.95h-1.76v-1.95z"/>
<path d="m208.65 7.97h1.76v13.75h-1.76z"/>
</g>
</svg>
