<?xml version="1.0" encoding="utf-8"?>
<!-- Generator: Adobe Illustrator 23.0.1, SVG Export Plug-In . SVG Version: 6.00 Build 0)  -->
<svg version="1.1" id="Layer_1" xmlns="http://www.w3.org/2000/svg" xmlns:xlink="http://www.w3.org/1999/xlink" x="0px" y="0px"
	 viewBox="0 0 8 8" style="enable-background:new 0 0 8 8;" xml:space="preserve">
<style type="text/css">
	.st0{fill:#AE1100;}
</style>
<path class="st0" d="M3.1,0C3,0,3,0,3,0.1L0,6.9C0,7,0,7,0,7.1v0.8C0,8,0,8,0.1,8h6.8C6.9,8,7,8,7,7.9V7.1C7,7,7,7,6.9,6.9L4,0.1
	C4,0,3.9,0,3.9,0L3.1,0L3.1,0z M3,3h1v2H3V3z M3,6h1v1H3V6z"/>
</svg>
