<?xml version="1.0" standalone="no"?>
<!DOCTYPE svg PUBLIC "-//W3C//DTD SVG 20010904//EN"
 "http://www.w3.org/TR/2001/REC-SVG-20010904/DTD/svg10.dtd">
<svg version="1.0" xmlns="http://www.w3.org/2000/svg"
 width="1056.000000pt" height="1056.000000pt" viewBox="0 0 1056.000000 1056.000000"
 preserveAspectRatio="xMidYMid meet">
<metadata>
Created by potrace 1.14, written by Peter Selinger 2001-2017
</metadata>
<g transform="translate(0.000000,1056.000000) scale(0.100000,-0.100000)"
fill="#000000" stroke="none">
<path d="M2019 9586 c-2 -2 -18 -6 -35 -9 -88 -14 -184 -63 -242 -126 -40 -42
-43 -49 -38 -86 7 -51 38 -127 160 -389 19 -39 46 -102 60 -141 15 -38 31 -79
35 -91 21 -51 -1 -189 -44 -274 -28 -55 -111 -150 -131 -150 -8 0 -14 -4 -14
-9 0 -5 -21 -18 -47 -29 -27 -11 -69 -30 -95 -42 -26 -11 -49 -19 -51 -18 -1
2 -14 -4 -27 -13 -23 -15 -350 -126 -388 -132 -9 -1 -23 -6 -29 -10 -7 -5 -13
-6 -13 -2 0 3 -8 1 -19 -4 -10 -6 -31 -13 -47 -16 -16 -3 -87 -21 -159 -41
-71 -19 -137 -37 -145 -39 -8 -2 -15 -4 -15 -5 0 -1 -131 -38 -164 -46 -14 -3
-28 -7 -33 -10 -4 -3 -16 -7 -25 -9 -10 -2 -43 -11 -73 -20 -30 -8 -64 -17
-75 -20 -11 -2 -59 -18 -107 -34 -47 -16 -88 -28 -90 -26 -2 2 -23 -6 -48 -18
-36 -17 -48 -30 -57 -60 -34 -102 -32 -241 3 -309 8 -16 13 -28 10 -28 -10 0
69 -150 109 -206 54 -75 106 -116 148 -117 18 0 57 11 87 25 30 14 78 36 105
49 28 12 52 23 55 24 3 0 34 15 70 32 479 230 650 312 750 356 37 16 244 109
295 133 45 20 138 55 158 60 9 2 27 7 40 10 93 23 222 18 303 -12 21 -8 47
-17 57 -21 9 -3 17 -9 17 -14 0 -5 6 -9 13 -9 14 -1 66 -53 90 -92 23 -37 76
-199 111 -338 2 -8 17 -62 32 -120 15 -58 28 -112 29 -121 6 -71 62 -111 150
-110 101 1 272 59 328 112 12 10 24 19 27 19 3 0 14 16 24 36 l17 37 -40 81
c-21 44 -58 122 -81 171 -22 50 -47 104 -55 120 -73 154 -86 201 -71 262 12
53 66 127 116 157 34 22 246 83 380 111 3 1 25 5 50 10 25 5 47 9 50 10 29 8
60 15 85 19 17 2 89 14 160 26 178 29 173 28 235 35 70 8 108 12 195 20 39 4
87 8 108 11 21 2 93 6 160 10 67 3 136 7 152 8 17 1 36 -2 43 -7 7 -6 12 -6
12 0 0 6 100 9 253 7 138 -1 252 -2 252 -3 0 -1 62 -4 138 -6 76 -3 150 -7
165 -10 15 -2 74 -7 132 -10 58 -4 123 -8 145 -11 22 -2 63 -6 90 -9 73 -6
132 -14 200 -26 33 -7 69 -13 80 -14 11 -2 34 -6 50 -9 17 -4 45 -9 64 -12 18
-3 43 -8 55 -10 31 -6 176 -33 211 -39 116 -19 193 -38 414 -101 124 -36 236
-66 248 -69 13 -2 33 -7 44 -10 34 -11 66 13 74 54 4 20 9 46 11 59 26 141
123 277 242 340 57 30 162 66 162 55 0 -3 6 -1 13 4 14 10 159 10 234 -1 113
-16 262 -76 369 -148 111 -74 223 -215 255 -321 28 -91 30 -183 6 -283 -9 -37
-59 -149 -73 -165 -8 -9 -16 -29 -17 -45 -2 -23 7 -34 53 -66 30 -20 60 -41
65 -45 16 -13 328 -208 339 -212 6 -2 22 -12 35 -22 13 -11 31 -19 40 -19 22
0 68 46 116 115 65 93 176 192 285 252 55 31 228 117 310 156 41 19 105 49
141 66 37 17 69 31 72 31 3 0 36 14 74 31 96 43 94 42 236 99 71 28 140 56
155 62 15 6 29 12 32 12 3 1 11 5 18 9 6 5 12 6 12 4 0 -3 26 6 58 20 31 13
69 29 85 34 15 6 27 17 27 24 0 12 -190 143 -199 136 -2 -1 -7 1 -10 6 -9 12
-86 63 -95 63 -4 0 -22 11 -39 24 -18 13 -59 38 -92 56 -33 18 -77 44 -97 57
-21 12 -42 23 -48 23 -5 0 -10 5 -10 11 0 5 -4 8 -9 4 -5 -3 -12 -1 -15 4 -3
5 -29 21 -58 36 -70 37 -92 49 -98 55 -9 9 -434 218 -540 266 -187 83 -452
193 -520 215 -14 4 -56 19 -95 34 -91 34 -343 118 -420 139 -33 9 -67 20 -75
23 -8 3 -19 7 -25 9 -66 18 -133 36 -145 39 -8 2 -17 4 -20 6 -3 1 -9 3 -15 4
-5 2 -12 4 -15 5 -3 1 -12 3 -20 5 -8 2 -82 20 -165 40 -136 33 -204 48 -275
61 -31 6 -68 13 -100 20 -27 6 -45 9 -105 19 -22 3 -67 11 -100 17 -33 6 -73
12 -90 14 -16 1 -57 7 -90 12 -33 6 -67 10 -75 10 -8 0 -26 3 -40 6 -14 3 -52
7 -85 10 -33 3 -76 8 -95 10 -62 9 -229 22 -385 32 -121 8 -771 8 -910 1 -98
-5 -194 -12 -305 -22 -95 -9 -141 -14 -280 -31 -19 -2 -60 -6 -90 -10 -30 -3
-57 -7 -60 -9 -3 -2 -30 -6 -60 -9 -30 -3 -66 -8 -80 -11 -14 -3 -45 -8 -70
-11 -25 -3 -54 -8 -65 -10 -11 -3 -36 -7 -55 -10 -19 -3 -66 -12 -105 -19 -38
-8 -85 -17 -102 -20 -18 -3 -63 -12 -100 -21 -38 -9 -77 -17 -88 -19 -27 -4
-94 -20 -260 -61 -141 -36 -160 -41 -192 -48 -10 -2 -67 -18 -128 -36 -60 -17
-119 -33 -130 -34 -11 -2 -32 -9 -47 -15 -16 -6 -28 -8 -28 -5 0 4 -6 1 -14
-5 -8 -7 -24 -14 -36 -16 -19 -4 -65 -19 -130 -43 -8 -3 -17 -6 -20 -7 -3 0
-61 -20 -130 -42 -218 -72 -254 -78 -314 -49 -40 19 -101 78 -121 117 -14 26
-55 164 -61 204 -2 11 -6 31 -9 45 -4 14 -8 34 -10 45 -16 100 -68 280 -88
306 -18 23 -72 39 -132 39 -28 0 -54 -2 -56 -4z"/>
<path d="M2047 6614 c-3 -3 -25 -7 -49 -9 -64 -5 -196 -52 -226 -82 -8 -7 -22
-18 -33 -23 -11 -6 -31 -29 -44 -51 -23 -36 -25 -44 -15 -82 6 -23 15 -51 20
-62 91 -197 212 -472 226 -515 13 -43 15 -54 14 -101 -1 -85 -40 -202 -87
-256 -62 -73 -74 -82 -150 -122 -54 -28 -153 -72 -193 -86 -3 -1 -12 -5 -20
-8 -52 -22 -129 -49 -149 -53 -13 -3 -39 -11 -58 -19 -20 -8 -39 -12 -44 -9
-5 3 -9 1 -9 -4 0 -6 -17 -13 -37 -17 -21 -5 -42 -10 -48 -11 -35 -11 -231
-64 -255 -69 -8 -2 -42 -11 -75 -20 -33 -9 -67 -18 -75 -20 -44 -11 -207 -57
-220 -62 -8 -3 -22 -7 -30 -9 -16 -3 -67 -18 -185 -56 -38 -12 -75 -23 -82
-24 -7 -1 -48 -14 -92 -29 -84 -28 -87 -31 -107 -116 -10 -45 -12 -161 -2
-202 5 -23 11 -49 13 -57 4 -22 75 -173 83 -180 4 -3 13 -16 20 -31 38 -73
136 -155 183 -152 18 2 144 57 299 132 41 19 77 36 80 36 3 1 60 29 128 63 67
34 126 62 130 63 4 2 67 31 140 66 73 35 137 63 142 63 6 0 10 5 10 10 0 6 6
10 14 10 8 0 31 8 53 19 21 10 63 30 93 43 108 49 236 106 280 125 46 21 121
47 130 46 3 -1 12 3 20 7 19 10 113 23 160 23 164 -2 297 -70 350 -180 32 -66
49 -116 89 -258 6 -22 17 -64 25 -92 8 -29 12 -53 9 -53 -3 0 -1 -6 4 -12 6
-7 13 -29 17 -48 3 -19 16 -67 27 -107 19 -64 26 -74 56 -88 40 -19 111 -21
190 -5 69 15 183 61 209 85 7 5 23 18 37 28 14 10 30 31 37 47 10 24 8 36 -13
81 -28 61 -70 151 -133 287 -24 52 -47 105 -50 118 -3 13 -9 24 -13 24 -14 0
-33 90 -27 129 9 68 60 147 119 186 19 12 218 72 280 84 4 0 8 1 10 2 8 2 45
11 62 14 11 2 49 11 85 20 36 9 83 18 105 21 22 3 56 9 75 14 19 5 55 11 80
14 25 3 56 8 70 11 14 3 45 7 70 10 25 3 63 8 85 11 22 4 54 8 72 10 17 1 49
5 70 8 35 5 145 15 238 21 313 22 809 22 1105 0 30 -2 87 -7 125 -10 126 -9
209 -16 260 -21 28 -3 66 -7 85 -10 19 -2 51 -6 70 -9 19 -3 49 -8 65 -10 55
-9 79 -13 185 -34 58 -11 116 -22 130 -25 14 -2 36 -7 50 -10 14 -3 36 -8 50
-10 28 -5 267 -55 290 -61 8 -2 60 -18 115 -35 193 -60 349 -98 372 -89 20 7
41 33 41 52 2 43 43 177 64 209 10 14 18 34 18 43 0 9 5 13 10 10 6 -3 10 0
10 7 0 22 126 142 135 128 2 -3 11 2 21 11 20 16 88 43 139 55 62 14 230 13
290 -2 33 -8 72 -16 87 -19 34 -6 151 -56 159 -68 3 -5 9 -7 12 -5 12 6 141
-86 194 -139 116 -116 176 -254 172 -393 -2 -79 -32 -179 -77 -264 -18 -32
-32 -68 -32 -80 1 -22 12 -31 224 -168 43 -28 243 -151 275 -169 l40 -22 33
29 c19 16 51 56 73 89 86 128 203 219 420 326 61 30 112 57 113 62 2 4 10 7
17 7 7 0 26 7 42 15 57 30 205 95 215 95 6 0 19 7 28 15 9 8 25 16 36 18 10 2
37 12 59 22 42 18 87 37 95 40 3 1 16 6 30 12 98 41 155 63 167 63 7 0 13 5
13 10 0 6 3 9 8 8 4 0 16 2 27 7 81 32 196 75 203 75 5 0 17 9 26 19 17 19 16
21 -41 58 -32 21 -60 40 -63 43 -3 3 -17 11 -32 19 -16 8 -28 18 -28 23 0 4
-5 8 -11 8 -7 0 -35 15 -63 34 -49 32 -376 225 -406 239 -8 4 -40 21 -70 38
-161 89 -476 244 -660 324 -47 21 -91 42 -97 47 -7 6 -13 8 -13 4 0 -4 -15 1
-32 11 -18 9 -37 18 -43 19 -5 1 -50 19 -100 39 -117 48 -418 159 -460 170 -5
1 -17 5 -25 8 -26 10 -145 49 -155 51 -5 1 -37 10 -70 20 -33 10 -67 20 -75
22 -8 2 -64 17 -125 34 -60 17 -119 33 -130 35 -11 3 -58 14 -105 26 -47 11
-93 22 -103 25 -10 2 -26 5 -35 8 -9 3 -30 8 -47 10 -27 5 -98 19 -150 31 -21
4 -197 35 -230 40 -72 11 -93 15 -120 20 -16 3 -47 8 -70 10 -22 2 -51 6 -65
9 -14 3 -52 8 -85 11 -33 4 -78 9 -100 11 -51 7 -113 12 -195 19 -36 3 -90 7
-120 10 -283 24 -923 24 -1195 0 -27 -2 -79 -7 -115 -10 -36 -3 -81 -7 -100
-9 -19 -2 -66 -7 -105 -10 -38 -3 -81 -8 -95 -10 -14 -3 -47 -7 -75 -10 -27
-3 -61 -8 -75 -11 -14 -2 -45 -7 -70 -9 -41 -5 -73 -10 -140 -22 -14 -2 -54
-9 -90 -14 -36 -6 -78 -13 -95 -17 -16 -3 -37 -6 -45 -8 -8 -1 -31 -5 -50 -9
-19 -4 -42 -8 -50 -10 -8 -2 -33 -6 -55 -11 -22 -4 -47 -9 -55 -10 -31 -6
-207 -46 -260 -60 -30 -8 -66 -16 -80 -19 -14 -2 -52 -12 -85 -21 -33 -9 -67
-18 -76 -20 -63 -14 -260 -69 -284 -80 -16 -7 -64 -23 -105 -36 -41 -12 -77
-23 -80 -24 -3 -1 -12 -5 -20 -8 -20 -9 -319 -107 -345 -114 -97 -24 -125 -26
-167 -9 -115 45 -157 121 -213 392 -33 157 -63 270 -81 306 -15 29 -67 62 -87
55 -7 -2 -22 -1 -33 4 -12 4 -24 5 -27 3z"/>
<path d="M1913 3620 c-102 -28 -207 -92 -235 -143 -22 -41 -17 -70 28 -180 25
-61 54 -128 64 -147 10 -19 27 -55 38 -80 11 -25 31 -70 45 -100 61 -131 79
-201 73 -274 -3 -38 -11 -75 -17 -83 -6 -7 -9 -13 -6 -13 11 0 -18 -67 -52
-121 -56 -89 -130 -136 -361 -227 -118 -47 -368 -127 -426 -138 -14 -3 -44
-11 -67 -18 -23 -8 -55 -17 -72 -21 -16 -4 -39 -9 -50 -12 -11 -3 -27 -6 -35
-7 -9 -1 -20 -5 -25 -8 -6 -3 -26 -9 -45 -14 -45 -10 -38 -8 -90 -23 -25 -7
-52 -15 -60 -16 -8 -2 -15 -4 -15 -5 0 -1 -9 -3 -19 -5 -10 -2 -40 -10 -65
-18 -38 -13 -121 -37 -141 -42 -6 -1 -17 -4 -185 -57 -123 -38 -170 -63 -173
-91 0 -6 -6 -32 -12 -57 -10 -38 -8 -160 3 -210 5 -27 41 -114 60 -150 10 -19
29 -53 40 -75 37 -68 99 -136 144 -159 38 -19 53 -20 90 -4 15 6 30 12 33 13
3 0 32 14 65 29 33 16 92 43 130 61 39 18 142 68 230 111 88 43 162 78 165 79
3 0 46 20 95 44 143 69 296 141 300 141 5 0 74 31 183 82 62 29 112 50 122 53
3 0 15 6 27 13 12 6 30 13 40 15 10 2 31 9 46 15 16 7 34 12 41 12 7 0 16 3
19 6 16 16 203 24 262 11 105 -22 199 -87 238 -164 24 -46 102 -286 113 -348
2 -11 10 -42 18 -69 8 -27 13 -53 10 -57 -2 -4 0 -10 6 -14 5 -3 10 -16 10
-27 0 -46 34 -128 59 -145 46 -30 142 -26 276 10 40 11 152 74 176 100 39 41
45 69 24 115 -10 20 -39 82 -65 137 -161 341 -181 404 -151 480 7 17 13 32 13
35 0 3 12 19 26 35 52 62 96 85 239 121 175 45 376 90 438 98 11 2 34 6 50 9
17 3 46 9 65 11 19 3 46 8 60 11 14 2 45 7 70 9 25 3 63 8 85 11 228 29 405
43 633 49 90 3 166 7 169 10 4 3 12 1 19 -5 7 -5 15 -6 18 -1 2 4 30 5 61 2
31 -3 58 -2 61 2 3 5 9 6 14 3 5 -3 87 -8 182 -10 95 -3 202 -7 238 -9 36 -3
108 -8 160 -12 52 -3 109 -8 125 -9 17 -2 68 -6 115 -10 47 -4 99 -9 115 -11
17 -2 50 -6 75 -9 65 -8 99 -13 150 -25 25 -5 56 -12 70 -15 14 -3 44 -8 68
-11 24 -2 54 -9 66 -14 13 -5 26 -7 29 -4 2 2 16 0 30 -5 14 -6 43 -12 64 -15
21 -3 50 -8 66 -11 15 -3 37 -7 50 -9 23 -5 109 -23 142 -30 11 -2 61 -16 110
-31 205 -61 330 -95 345 -95 9 0 20 -3 23 -7 24 -23 103 -2 105 29 4 69 59
222 94 266 6 6 7 12 3 12 -4 0 20 27 53 59 89 88 183 131 317 147 71 8 63 8
145 1 88 -8 177 -29 248 -59 15 -6 29 -12 32 -13 19 -6 67 -32 78 -42 7 -7 18
-13 23 -13 26 0 229 -182 229 -205 0 -4 9 -19 20 -35 11 -15 17 -30 13 -34 -3
-3 -1 -6 5 -6 11 0 36 -68 48 -130 21 -106 -2 -225 -66 -353 -22 -43 -40 -84
-40 -93 0 -8 13 -23 30 -32 16 -9 30 -20 30 -24 0 -5 6 -8 13 -8 8 0 22 -9 32
-20 10 -11 22 -20 26 -20 5 0 48 -26 96 -58 48 -33 99 -65 113 -72 14 -7 57
-34 96 -60 116 -77 119 -76 219 58 115 156 191 211 508 369 70 34 129 63 131
63 2 0 37 15 78 34 40 18 129 57 198 86 69 29 134 56 145 61 63 27 272 111
285 114 37 9 146 58 152 68 7 12 -28 57 -43 57 -5 0 -49 27 -98 60 -50 33 -92
60 -95 60 -3 0 -25 14 -49 30 -25 17 -50 30 -56 30 -6 0 -11 5 -11 10 0 6 -4
10 -10 10 -5 0 -38 18 -72 40 -35 22 -69 40 -75 40 -7 0 -13 4 -13 9 0 5 -8
11 -17 14 -10 4 -38 18 -63 33 -120 72 -575 302 -720 364 -41 17 -98 43 -127
56 -28 13 -54 24 -57 24 -3 0 -30 11 -60 25 -30 14 -58 25 -62 25 -3 0 -32 11
-63 24 -85 38 -321 123 -461 168 -69 21 -132 42 -140 45 -8 3 -22 7 -30 9 -8
2 -49 14 -90 27 -41 14 -91 28 -110 33 -42 9 -41 9 -60 16 -15 6 -135 36 -180
45 -34 7 -42 9 -60 16 -8 3 -42 11 -75 18 -33 7 -64 13 -70 15 -68 14 -276 56
-295 59 -14 2 -36 6 -50 9 -14 2 -43 7 -65 10 -51 7 -95 14 -168 27 -31 5 -62
7 -67 4 -6 -3 -10 -2 -10 3 0 4 -16 8 -35 7 -19 -1 -35 1 -35 4 0 4 -10 7 -22
7 -22 1 -121 10 -203 19 -307 33 -891 48 -1195 30 -58 -3 -136 -8 -175 -10
-81 -4 -194 -13 -245 -20 -19 -3 -60 -7 -90 -10 -114 -12 -136 -14 -185 -20
-27 -3 -90 -12 -140 -20 -49 -8 -110 -17 -135 -20 -51 -7 -85 -13 -85 -15 0
-1 -16 -3 -36 -5 -20 -1 -45 -5 -55 -9 -10 -3 -37 -8 -59 -11 -22 -4 -49 -9
-60 -12 -11 -3 -31 -7 -45 -9 -33 -4 -76 -12 -124 -25 -21 -6 -40 -8 -43 -5
-3 3 -13 1 -23 -4 -9 -5 -29 -12 -43 -15 -15 -3 -37 -7 -49 -10 -13 -2 -104
-25 -203 -50 -99 -25 -190 -48 -202 -50 -12 -3 -33 -9 -45 -14 -13 -5 -27 -9
-33 -10 -32 -5 -139 -36 -297 -88 -59 -19 -109 -33 -111 -31 -2 2 -10 -2 -18
-8 -15 -12 -165 -63 -208 -70 -14 -3 -30 -9 -36 -13 -11 -9 -56 -19 -121 -27
-68 -9 -166 52 -205 128 -17 33 -54 154 -65 211 -2 12 -6 33 -9 47 -10 56 -37
176 -43 190 -3 8 -6 17 -6 20 -10 43 -33 110 -44 127 -28 45 -143 55 -259 23z"/>
</g>
</svg>
